HIERARCHY
ROOT hip
{
	OFFSET 0.000000 0.000000 0.000000
	CHANNELS 6 Xposition Yposition Zposition Xrotation Zrotation Yrotation 
	JOINT abdomen
	{
		OFFSET 0.000000 3.422050 0.000000
		CHANNELS 3 Xrotation Zrotation Yrotation 
		JOINT chest
		{
			OFFSET 0.000000 8.486693 -0.684411
			CHANNELS 3 Xrotation Zrotation Yrotation 
			JOINT neck
			{
				OFFSET 0.000000 10.266162 -0.273764
				CHANNELS 3 Xrotation Zrotation Yrotation 
				JOINT head
				{
					OFFSET 0.000000 3.148285 0.000000
					CHANNELS 3 Xrotation Zrotation Yrotation 
					End Site
					{
						OFFSET 0.000000 3.148289 0.000000
					}
				}
			}
			JOINT lCollar
			{
				OFFSET 3.422053 6.707223 -0.821293
				CHANNELS 3 Yrotation Zrotation Xrotation 
				JOINT lShldr
				{
					OFFSET 3.285171 0.000000 0.000000
					CHANNELS 3 Zrotation Yrotation Xrotation 
					JOINT lForeArm
					{
						OFFSET 10.129278 0.000000 0.000000
						CHANNELS 3 Yrotation Zrotation Xrotation 
						JOINT lHand
						{
							OFFSET 8.486692 0.000000 0.000000
							CHANNELS 3 Zrotation Yrotation Xrotation 
							End Site
							{
								OFFSET 4.106464 0.000000 0.000000
							}
						}
					}
				}
			}
			JOINT rCollar
			{
				OFFSET -3.558935 6.707223 -0.821293
				CHANNELS 3 Yrotation Zrotation Xrotation 
				JOINT rShldr
				{
					OFFSET -3.148289 0.000000 0.000000
					CHANNELS 3 Zrotation Yrotation Xrotation 
					JOINT rForeArm
					{
						OFFSET -10.266159 0.000000 0.000000
						CHANNELS 3 Yrotation Zrotation Xrotation 
						JOINT rHand
						{
							OFFSET -8.349810 0.000000 0.000000
							CHANNELS 3 Zrotation Yrotation Xrotation 
							End Site
							{
								OFFSET -4.106464 0.000000 0.000000
							}
						}
					}
				}
			}
		}
	}
	JOINT lThigh
	{
		OFFSET 5.338403 -1.642589 1.368821
		CHANNELS 3 Xrotation Zrotation Yrotation 
		JOINT lShin
		{
			OFFSET -2.053232 -20.121670 0.000000
			CHANNELS 3 Xrotation Zrotation Yrotation 
			JOINT lFoot
			{
				OFFSET 0.000000 -19.300380 -1.231939
				CHANNELS 3 Xrotation Yrotation Zrotation 
				End Site
				{
					OFFSET 0.000000 -2.463878 4.653993
				}
			}
		}
	}
	JOINT rThigh
	{
		OFFSET -5.338403 -1.642589 1.368821
		CHANNELS 3 Xrotation Zrotation Yrotation 
		JOINT rShin
		{
			OFFSET 2.053232 -20.121670 0.000000
			CHANNELS 3 Xrotation Zrotation Yrotation 
			JOINT rFoot
			{
				OFFSET 0.000000 -19.300380 -1.231939
				CHANNELS 3 Xrotation Yrotation Zrotation 
				End Site
				{
					OFFSET 0.000000 -2.463878 4.653993
				}
			}
		}
	}
}
MOTION
Frames: 15
Frame Time: 0.033264
0.000000 43.528500 0.000000 0.000000 0.000000 0.000000 0.000000 0.000000 0.000000 0.000000 0.000000 0.000000 0.000000 0.000000 0.000000 0.000000 0.000000 0.000000 0.000000 0.000000 0.000000 0.000000 0.000000 0.000000 0.000000 0.000000 0.000000 0.000000 0.000000 0.000000 0.000000 0.000000 0.000000 0.000000 0.000000 0.000000 0.000000 0.000000 0.000000 0.000000 0.000000 0.000000 0.000000 0.000000 0.000000 0.000000 0.000000 0.000000 0.000000 0.000000 0.000000 0.000000 0.000000 0.000000 0.000000 0.000000 0.000000 0.000000 0.000000 0.000000 
0.000000 7.997272 0.000000 0.000000 0.000000 0.000000 5.998535 0.000000 0.000000 -5.000705 0.000000 0.000000 0.000000 0.000000 0.000000 0.000000 0.000000 0.000000 -2.002196 0.000000 0.000000 -105.000664 -68.000259 30.000233 -32.002007 0.000000 0.000000 4.997208 0.000000 0.000000 11.997753 0.000000 0.000000 89.989182 73.000534 29.988131 31.998375 0.000000 0.000000 -10.002190 0.000000 0.000000 -71.002243 15.998086 -0.002042 149.993622 0.000000 0.000000 63.997410 -0.000001 0.000001 -72.002914 -16.002325 -0.002221 149.993622 0.000000 0.000000 63.997410 -0.000001 0.000001 
0.000000 7.997272 0.000000 0.000000 0.000000 0.000000 5.998536 0.000000 0.000000 -5.000705 0.000000 0.000000 0.319063 0.092693 0.596091 0.221187 0.017071 0.165621 -2.002196 0.000000 0.000000 -105.000664 -68.000259 30.000233 -31.201923 0.000000 0.000000 4.997208 0.000000 0.000000 11.997753 0.000000 0.000000 89.989182 73.000534 29.988131 34.595955 0.000000 0.000000 -10.002190 0.000000 0.000000 -71.002243 15.998086 -0.002041 149.993622 0.000000 0.000000 63.997410 -0.000001 0.000001 -72.002914 -16.002325 -0.002221 149.993622 0.000000 0.000000 63.997410 -0.000001 0.000001 
0.000000 7.997272 0.000000 0.000000 0.000000 0.000000 5.998535 0.000000 0.000000 -5.000706 0.000000 0.000000 0.639682 0.182226 1.193822 0.442489 0.033508 0.331358 -2.002196 0.000000 0.000000 -105.000664 -68.000259 30.000233 -30.401716 0.000000 0.000000 4.997208 0.000000 0.000000 11.997754 0.000000 0.000000 89.989182 73.000534 29.988131 37.197567 0.000000 0.000000 -10.002190 0.000000 0.000000 -71.002243 15.998086 -0.002042 149.993622 0.000000 0.000000 63.997417 -0.000001 0.000001 -72.002914 -16.002325 -0.002222 149.993622 0.000000 0.000000 63.997417 -0.000001 0.000001 
0.000000 7.997272 0.000000 0.000000 0.000000 0.000000 5.998535 0.000000 0.000000 -5.000705 0.000000 0.000000 0.961807 0.268563 1.793140 0.663904 0.049309 0.497205 -2.002196 0.000000 0.000000 -105.000664 -68.000259 30.000233 -29.601463 0.000000 0.000000 4.997207 0.000000 0.000000 11.997754 0.000000 0.000000 89.989182 73.000534 29.988131 39.800514 0.000000 0.000000 -10.002188 0.000000 0.000000 -71.002243 15.998088 -0.002041 149.993622 0.000000 0.000000 63.997410 -0.000001 0.000001 -72.002914 -16.002325 -0.002221 149.993622 0.000000 0.000000 63.997410 -0.000001 0.000001 
0.000000 7.997272 0.000000 0.000000 0.000000 0.000000 5.998535 0.000000 0.000000 -5.000705 0.000000 0.000000 1.285388 0.351667 2.393993 0.885425 0.064473 0.663159 -2.002196 0.000000 0.000000 -105.000664 -68.000259 30.000233 -28.801266 0.000000 0.000000 4.997208 0.000000 0.000000 11.997753 0.000000 0.000000 89.989182 73.000534 29.988131 42.402111 0.000000 0.000000 -10.002190 0.000000 0.000000 -71.002235 15.998084 -0.002042 149.993607 0.000000 0.000000 63.997406 -0.000001 0.000001 -72.002914 -16.002323 -0.002220 149.993607 0.000000 0.000000 63.997406 -0.000001 0.000001 
0.000000 7.997272 0.000000 0.000000 0.000000 0.000000 5.998535 0.000000 0.000000 -5.000705 0.000000 0.000000 1.610373 0.431503 2.996325 1.107050 0.079000 0.829216 -2.002196 0.000000 0.000000 -105.000648 -68.000252 30.000223 -28.001171 0.000000 0.000000 4.997208 0.000000 0.000000 11.997751 0.000000 0.000000 89.989174 73.000534 29.988123 44.999695 0.000000 0.000000 -10.002190 0.000000 0.000000 -71.002228 15.998084 -0.002041 149.993622 0.000000 0.000000 63.997410 -0.000001 0.000001 -72.002914 -16.002325 -0.002221 149.993622 0.000000 0.000000 63.997410 -0.000001 0.000001 
0.000000 7.997272 0.000000 0.000000 0.000000 0.000000 5.998536 0.000000 0.000000 -5.000705 0.000000 0.000000 1.936710 0.508037 3.600080 1.328772 0.092887 0.995370 -2.002196 0.000000 0.000000 -105.000664 -68.000259 30.000233 -30.663185 0.000000 0.000000 4.997208 0.000000 0.000000 11.997753 0.000000 0.000000 89.989182 73.000534 29.988131 42.006065 0.000000 0.000000 -10.002190 0.000000 0.000000 -71.002243 15.998084 -0.002042 149.993622 0.000000 0.000000 63.997410 -0.000001 0.000001 -72.002914 -16.002325 -0.002221 149.993622 0.000000 0.000000 63.997410 -0.000001 0.000001 
0.000000 7.997272 0.000000 0.000000 0.000000 0.000000 5.998535 0.000000 0.000000 -5.000705 0.000000 0.000000 2.264344 0.581238 4.205202 1.550589 0.106134 1.161617 -2.002196 0.000000 0.000000 -105.000664 -68.000244 30.000237 -33.330982 0.000000 0.000000 4.997208 0.000000 0.000000 11.997753 0.000000 0.000000 89.989182 73.000534 29.988131 39.004196 0.000000 0.000000 -10.002190 0.000000 0.000000 -71.002243 15.998086 -0.002042 149.993622 0.000000 0.000000 63.997410 -0.000001 0.000001 -72.002914 -16.002325 -0.002222 149.993622 0.000000 0.000000 63.997410 -0.000001 0.000001 
0.000000 7.997272 0.000000 0.000000 0.000000 0.000000 5.998535 0.000000 0.000000 -5.000705 0.000000 0.000000 2.593223 0.651073 4.811633 1.772496 0.118740 1.327954 -2.002196 0.000000 0.000000 -105.000648 -68.000244 30.000231 -36.001678 0.000000 0.000000 4.997207 0.000000 0.000000 11.997753 0.000000 0.000000 89.989174 73.000534 29.988123 35.998196 0.000000 0.000000 -10.002189 0.000000 0.000000 -71.002243 15.998088 -0.002041 149.993622 0.000000 0.000000 63.997417 -0.000001 0.000001 -72.002914 -16.002325 -0.002221 149.993622 0.000000 0.000000 63.997417 -0.000001 0.000001 
0.000000 7.997272 0.000000 0.000000 0.000000 0.000000 5.998535 0.000000 0.000000 -5.000705 0.000000 0.000000 2.923288 0.717513 5.419313 1.994488 0.130705 1.494376 -2.002196 0.000000 0.000000 -105.000679 -68.000259 30.000240 -38.672371 0.000000 0.000000 4.997207 0.000000 0.000000 11.997753 0.000000 0.000000 89.989189 73.000534 29.988134 32.992199 0.000000 0.000000 -10.002190 0.000000 0.000000 -71.002243 15.998086 -0.002041 149.993622 0.000000 0.000000 63.997410 -0.000001 0.000001 -72.002922 -16.002325 -0.002219 149.993622 0.000000 0.000000 63.997410 -0.000001 0.000001 
0.000000 7.997272 0.000000 0.000000 0.000000 0.000000 5.998535 0.000000 0.000000 -5.000705 0.000000 0.000000 3.254484 0.780530 6.028181 2.216560 0.142027 1.660878 -2.002196 0.000000 0.000000 -105.000664 -68.000259 30.000233 -41.340164 0.000000 0.000000 4.997208 0.000000 0.000000 11.997753 0.000000 0.000000 89.989212 73.000565 29.988144 29.990330 0.000000 0.000000 -10.002190 0.000000 0.000000 -71.002243 15.998084 -0.002042 149.993622 0.000000 0.000000 63.997410 -0.000001 0.000001 -72.002899 -16.002323 -0.002222 149.993622 0.000000 0.000000 63.997410 -0.000001 0.000001 
0.000000 7.997272 0.000000 0.000000 0.000000 0.000000 5.998535 0.000000 0.000000 -5.000705 0.000000 0.000000 3.586754 0.840094 6.638180 2.438710 0.152705 1.827456 -2.002196 0.000000 0.000000 -105.000671 -68.000259 30.000244 -44.002182 0.000000 0.000000 4.997208 0.000000 0.000000 11.997753 0.000000 0.000000 89.989182 73.000534 29.988131 26.996685 0.000000 0.000000 -10.002190 0.000000 0.000000 -71.002228 15.998084 -0.002041 149.993622 0.000000 0.000000 63.997410 -0.000001 0.000001 -72.002914 -16.002325 -0.002221 149.993622 0.000000 0.000000 63.997410 -0.000001 0.000001 
0.000000 7.997272 0.000000 0.000000 0.000000 0.000000 5.998535 0.000000 0.000000 -5.000705 0.000000 0.000000 3.920039 0.896182 7.249247 2.660931 0.162740 1.994106 -2.002196 0.000000 0.000000 -105.000664 -68.000259 30.000233 -41.340164 0.000000 0.000000 4.997208 0.000000 0.000000 11.997753 0.000000 0.000000 89.989212 73.000549 29.988152 29.990330 0.000000 0.000000 -10.002190 0.000000 0.000000 -71.002243 15.998086 -0.002042 149.993622 0.000000 0.000000 63.997410 -0.000001 0.000001 -72.002914 -16.002323 -0.002220 149.993622 0.000000 0.000000 63.997410 -0.000001 0.000001 
0.000000 7.997272 0.000000 0.000000 0.000000 0.000000 5.998535 0.000000 0.000000 -5.000705 0.000000 0.000000 4.254280 0.948768 7.861318 2.883220 0.172129 2.160823 -2.002196 0.000000 0.000000 -105.000656 -68.000267 30.000231 -38.672367 0.000000 0.000000 4.997207 0.000000 0.000000 11.997753 0.000000 0.000000 89.989182 73.000534 29.988131 32.992199 0.000000 0.000000 -10.002190 0.000000 0.000000 -71.002243 15.998086 -0.002041 149.993622 0.000000 0.000000 63.997410 -0.000001 0.000001 -72.002914 -16.002325 -0.002221 149.993622 0.000000 0.000000 63.997410 -0.000001 0.000001 
